
        <svg xmlns="http://www.w3.org/2000/svg" xmlns:xlink="http://www.w3.org/1999/xlink" version="1.1" width="3153.1708469803098" height="631.7237486649085" viewBox="0 0 3153.1708469803098 631.7237486649085">
			
			<g transform="scale(7.658542349015488) translate(10, 10)">
				<defs id="SvgjsDefs8053"/><g id="SvgjsG8054" featureKey="7fT3kx-0" transform="matrix(0.7047141371048619,0,0,0.7047141371048619,116.71742048553085,48.138168867461204)" fill="#000"><path d="M3.74 5.84 l0 5.88 l7.34 0 l0 -5.88 l1.92 0 l0 14.16 l-1.92 0 l0 -6.48 l-7.34 0 l0 6.48 l-1.92 0 l0 -14.16 l1.92 0 z M20.565 5.84 l0 8.74 c0 1.16 0.32334 2.11334 0.97 2.86 s1.51 1.12 2.59 1.12 s1.94334 -0.37334 2.59 -1.12 s0.97 -1.7 0.97 -2.86 l0 -8.74 l1.92 0 l0 9.06 c0 0.97334 -0.23 1.88334 -0.69 2.73 s-1.11334 1.51332 -1.96 1.99998 s-1.79 0.73 -2.83 0.73 c-1.6 0 -2.91334 -0.52334 -3.94 -1.57 s-1.54 -2.34332 -1.54 -3.88998 l0 -9.06 l1.92 0 z M37.97 5.84 l4.5 10.72 l0.08 0 l4.46 -10.72 l2.86 0 l0 14.16 l-1.92 0 l0 -11.64 l-0.04 0 l-4.78 11.64 l-1.28 0 l-4.78 -11.64 l-0.04 0 l0 11.64 l-1.92 0 l0 -14.16 l2.86 0 z M61.815 5.84 l6.06 14.16 l-2.24 0 l-1.42 -3.5 l-6.74 0 l-1.4 3.5 l-2.24 0 l6.24 -14.16 l1.74 0 z M58.155 14.82 l5.36 0 l-2.64 -6.5 l-0.04 0 z M74.5 5.84 l7.8 11.64 l0.04 0 l0 -11.64 l1.92 0 l0 14.16 l-2.44 0 l-7.88 -11.64 l-0.04 0 l0 11.64 l-1.92 0 l0 -14.16 l2.52 0 z M93.965 14.32 l0 1.68 l-4.92 0 l0 -1.68 l4.92 0 z M107.65 5.84 l0 1.8 l-6.98 0 l0 4.44 l6.5 0 l0 1.8 l-6.5 0 l0 6.12 l-1.92 0 l0 -14.16 l8.9 0 z M114.415 5.84 l0 14.16 l-1.92 0 l0 -14.16 l1.92 0 z M125.4 5.84 c1.38666 0 2.47334 0.34666 3.26 1.04 s1.18 1.66668 1.18 2.92002 c0 0.94666 -0.32334 1.77332 -0.97 2.47998 s-1.47666 1.12666 -2.49 1.26 l-0.02 0 l4.02 6.46 l-2.4 0 l-3.6 -6.24 l-2.14 0 l0 6.24 l-1.92 0 l0 -14.16 l5.08 0 z M124.84002 12.08 c1 0 1.74334 -0.183359 2.23 -0.55002 s0.73 -0.94332 0.73 -1.72998 c0 -1.52 -0.98666 -2.28 -2.96 -2.28 l-2.6 0 l0 4.56 l2.6 0 z M138.865 5.48 c1.84 0 3.19996 0.540058 4.07996 1.620058 l-1.56 1.42 c-0.24 -0.37334 -0.58 -0.67334 -1.02 -0.9 s-0.94666 -0.34 -1.52 -0.34 c-0.82666 0 -1.49 0.20334 -1.99 0.61 s-0.75 0.93 -0.75 1.57 c0 1.06666 0.70666 1.81332 2.12 2.23998 l1.78 0.58 c1 0.32 1.76334 0.76666 2.29 1.34 s0.79 1.36 0.79 2.36 c0 1.30666 -0.46334 2.36332 -1.39 3.16998 s-2.10332 1.21 -3.52998 1.21 c-2.04 0 -3.54666 -0.65334 -4.52 -1.96 l1.58 -1.36 c0.30666 0.48 0.72666 0.85334 1.26 1.12 s1.11334 0.4 1.74 0.4 c0.78666 0 1.45332 -0.22666 1.99998 -0.68 s0.82 -1.01334 0.82 -1.68 c0 -0.49334 -0.16666 -0.90668 -0.5 -1.24002 s-0.93334 -0.63334 -1.8 -0.9 l-1.26 -0.42 c-1.26666 -0.42666 -2.15332 -0.97 -2.65998 -1.63 s-0.76 -1.51 -0.76 -2.55 c0 -1.10666 0.44666 -2.04666 1.34 -2.82 s2.04668 -1.16 3.46002 -1.16 z M157.63 5.84 l0 1.8 l-4.56 0 l0 12.36 l-1.92 0 l0 -12.36 l-4.56 0 l0 -1.8 l11.04 0 z M175.94 5.84 l6.06 14.16 l-2.24 0 l-1.42 -3.5 l-6.74 0 l-1.4 3.5 l-2.24 0 l6.24 -14.16 l1.74 0 z M172.28 14.82 l5.36 0 l-2.64 -6.5 l-0.04 0 z M188.025 5.84 l0 14.16 l-1.92 0 l0 -14.16 l1.92 0 z"/></g><g id="SvgjsG8055" featureKey="nameLeftFeature-0" transform="matrix(1.8817693048759307,0,0,1.8817693048759307,-0.602168968155609,-1.4250000826337992)" fill="#000"><path d="M9.76 6.4 l0 -0.46 c0 -0.12 0.04 -0.16 0.16 -0.16 c0.16 0 1.08 0.06 2.36 0.06 c1.68 0 2.2 -0.06 2.36 -0.06 c0.12 0 0.16 0.04 0.16 0.14 l0 0.5 c0 0.1 -0.04 0.16 -0.16 0.16 l-0.48 0 c-0.48 0 -1 0.2 -1.46 0.92 c-0.66 1.06 -1.86 4.18 -2.42 5.5 c-0.4 0.88 -2.8 6.72 -3 7.14 c-0.08 0.16 -0.24 0.26 -0.4 0.26 c-0.24 0 -0.34 -0.22 -0.44 -0.46 c-0.68 -1.7 -2.36 -6.28 -3.04 -8.14 c-0.52 -1.44 -1.4 -4 -1.62 -4.58 c-0.18 -0.44 -0.42 -0.64 -0.86 -0.64 l-0.48 0 c-0.08 0 -0.12 -0.06 -0.12 -0.18 l0 -0.46 c0 -0.12 0.04 -0.16 0.12 -0.16 c0.2 0 0.88 0.06 2.96 0.06 c1.88 0 2.8 -0.06 2.96 -0.06 s0.2 0.06 0.2 0.16 l0 0.44 c0 0.14 -0.04 0.2 -0.16 0.2 l-0.96 0 c-0.52 0 -0.84 0.2 -0.84 0.5 c0 0.16 0 0.4 0.06 0.68 c0.14 0.72 0.9 3.08 1.3 4.24 c0.28 0.76 1.36 3.92 1.68 5 l0.04 0 l0 -0.04 c0.48 -1.12 1.76 -4.44 1.96 -5.04 c0.32 -0.94 1.56 -3.96 1.56 -4.78 c0 -0.24 -0.2 -0.56 -0.76 -0.56 l-0.54 0 c-0.08 0 -0.14 -0.08 -0.14 -0.18 z M20.058 11.96 l0 1.56 c0 0.2 0.04 4.8 0.04 5.02 c0 0.64 0.32 0.72 0.8 0.72 l0.84 0 c0.08 0 0.16 0.04 0.16 0.14 l0 0.5 c0 0.12 -0.08 0.16 -0.2 0.16 c-0.24 0 -1.04 -0.06 -2.92 -0.06 c-2 0 -2.88 0.06 -3.08 0.06 c-0.12 0 -0.16 -0.04 -0.16 -0.14 l0 -0.54 c0 -0.08 0.04 -0.12 0.16 -0.12 l0.8 0 c0.4 0 0.84 -0.04 0.92 -0.58 c0.04 -0.28 0.08 -4.6 0.08 -5.68 l0 -1.4 c0 -0.48 -0.04 -4.08 -0.06 -4.34 c-0.06 -0.48 -0.26 -0.68 -0.82 -0.68 l-1.04 0 c-0.12 0 -0.16 -0.04 -0.16 -0.14 l0 -0.52 c0 -0.1 0.04 -0.14 0.12 -0.14 c0.24 0 1.28 0.06 3.24 0.06 c1.92 0 2.56 -0.06 2.84 -0.06 c0.12 0 0.16 0.08 0.16 0.18 l0 0.46 c0 0.12 -0.08 0.16 -0.16 0.16 l-0.76 0 c-0.44 0 -0.76 0.16 -0.76 0.54 c0 0.2 -0.04 4.6 -0.04 4.84 z M24.716 15.5 l0.44 0.04 c0.08 0 0.12 0.04 0.12 0.16 c0.04 0.64 0.2 1.4 0.76 2.28 c0.6 0.96 1.64 1.44 2.64 1.44 c1.08 0 2.6 -0.68 2.6 -2.34 c0 -1.84 -0.84 -2.44 -2.96 -3.24 c-0.64 -0.24 -1.96 -0.8 -2.92 -1.68 c-0.68 -0.64 -1 -1.64 -1 -2.86 c0 -1.12 0.44 -2.04 1.4 -2.8 c0.8 -0.68 1.68 -0.96 2.84 -0.96 c1.32 0 2.12 0.32 2.52 0.48 c0.2 0.08 0.32 0.04 0.42 -0.06 l0.26 -0.26 c0.08 -0.08 0.16 -0.12 0.28 -0.12 s0.16 0.12 0.16 0.32 c0 0.32 0.32 3.12 0.32 3.32 c0 0.08 -0.04 0.12 -0.12 0.14 l-0.32 0.1 c-0.08 0.02 -0.16 0 -0.2 -0.12 c-0.2 -0.56 -0.52 -1.36 -1.24 -2.12 c-0.52 -0.56 -1.16 -0.84 -2.08 -0.84 c-1.6 0 -2.24 1.28 -2.24 2.02 c0 0.68 0.08 1.28 0.56 1.8 c0.52 0.52 1.64 1 2.44 1.24 c1.16 0.36 2.12 0.76 2.88 1.56 c0.64 0.68 1 1.52 1 2.86 c0 2.44 -1.6 4.44 -4.24 4.44 c-1.64 0 -2.6 -0.36 -3.4 -0.96 c-0.24 -0.16 -0.36 -0.24 -0.48 -0.24 s-0.2 0.16 -0.32 0.36 s-0.2 0.24 -0.36 0.24 s-0.24 -0.12 -0.24 -0.32 c0.04 -0.24 0.32 -3.48 0.36 -3.72 c0.02 -0.12 0.04 -0.16 0.12 -0.16 z M39.854 11.96 l0 1.56 c0 0.2 0.04 4.8 0.04 5.02 c0 0.64 0.32 0.72 0.8 0.72 l0.84 0 c0.08 0 0.16 0.04 0.16 0.14 l0 0.5 c0 0.12 -0.08 0.16 -0.2 0.16 c-0.24 0 -1.04 -0.06 -2.92 -0.06 c-2 0 -2.88 0.06 -3.08 0.06 c-0.12 0 -0.16 -0.04 -0.16 -0.14 l0 -0.54 c0 -0.08 0.04 -0.12 0.16 -0.12 l0.8 0 c0.4 0 0.84 -0.04 0.92 -0.58 c0.04 -0.28 0.08 -4.6 0.08 -5.68 l0 -1.4 c0 -0.48 -0.04 -4.08 -0.06 -4.34 c-0.06 -0.48 -0.26 -0.68 -0.82 -0.68 l-1.04 0 c-0.12 0 -0.16 -0.04 -0.16 -0.14 l0 -0.52 c0 -0.1 0.04 -0.14 0.12 -0.14 c0.24 0 1.28 0.06 3.24 0.06 c1.92 0 2.56 -0.06 2.84 -0.06 c0.12 0 0.16 0.08 0.16 0.18 l0 0.46 c0 0.12 -0.08 0.16 -0.16 0.16 l-0.76 0 c-0.44 0 -0.76 0.16 -0.76 0.54 c0 0.2 -0.04 4.6 -0.04 4.84 z M51.472 5.54 c1.48 0 3.08 0.28 4.72 1.6 c1.5 1.22 2.72 3.2 2.72 5.92 c0 1.48 -0.4 3.04 -1.48 4.4 c-1.28 1.6 -3 2.84 -6 2.84 c-1.2 0 -2.92 -0.36 -4.52 -1.32 c-1.42 -0.86 -2.92 -3.04 -2.92 -5.92 c0 -1.2 0.34 -3.1 1.84 -4.96 c1.76 -2.16 3.92 -2.56 5.64 -2.56 z M51.392 6.42 c-0.36 0 -1.52 -0.2 -2.88 1.12 c-1.22 1.18 -1.8 3.24 -1.8 4.84 c0 5.2 3.2 7.04 4.88 7.04 c4.04 0 4.68 -4.48 4.68 -6.16 c0 -4.36 -2.96 -6.84 -4.88 -6.84 z M63.85 8.52 l0 2.44 c0 3.4 0.16 6.2 0.2 6.82 c0.04 1 0.28 1.48 1 1.48 l0.52 0 c0.16 0 0.16 0.08 0.16 0.18 l0 0.46 c0 0.12 0 0.16 -0.16 0.16 c-0.2 0 -1.4 -0.06 -2.16 -0.06 c-0.52 0 -1.88 0.06 -2.08 0.06 c-0.08 0 -0.12 -0.04 -0.12 -0.18 l0 -0.5 c0 -0.04 0.04 -0.12 0.12 -0.12 l0.68 0 c0.52 0 0.8 -0.44 0.9 -1.66 c0.02 -0.36 0.14 -3.16 0.14 -6.36 l0 -2.54 c0 -1.2 -0.68 -2.12 -1.56 -2.12 l-0.64 0 c-0.08 -0.02 -0.12 -0.06 -0.12 -0.14 l0 -0.54 c0 -0.08 0.04 -0.12 0.12 -0.12 c0.1 0 0.26 0.02 0.62 0.04 s0.9 0.02 1.78 0.02 c0.34 0 0.64 -0.02 0.88 -0.04 c0.26 0 0.44 -0.02 0.56 -0.02 c0.24 0 0.36 0.06 0.48 0.18 c0.2 0.2 4.12 5.12 4.52 5.68 c0.28 0.32 3.4 4.2 3.72 4.6 l0.08 0 l0 -2.08 c0 -1.76 0 -2.76 -0.04 -3.76 c-0.04 -0.76 -0.12 -2.72 -0.22 -3.06 c-0.14 -0.48 -0.58 -0.76 -1.06 -0.76 l-0.64 0 c-0.12 0 -0.12 -0.08 -0.12 -0.18 l0 -0.46 c0 -0.12 0 -0.16 0.16 -0.16 c0.24 0 0.88 0.06 2.24 0.06 c1.2 0 1.68 -0.06 1.92 -0.06 c0.16 0 0.2 0.08 0.2 0.14 l0 0.46 c0 0.12 -0.04 0.2 -0.12 0.2 l-0.56 0 c-0.4 0 -0.6 0.32 -0.66 1.06 c-0.1 1.36 -0.3 4.72 -0.3 6.76 l0 5.28 c0 0.28 0 0.56 -0.24 0.56 c-0.28 0 -0.52 -0.16 -0.68 -0.32 c-0.16 -0.2 -1.24 -1.44 -2.48 -2.92 c-1.4 -1.72 -2.96 -3.6 -3.2 -3.92 c-0.28 -0.28 -3.48 -4.28 -3.72 -4.56 l-0.12 0 z"/></g><g id="SvgjsG8056" featureKey="inlineSymbolFeature-0" transform="matrix(0.5378222395787579,0,0,0.5378222395787579,153.48445111611062,-4.183121560096047)" fill="#000"><path xmlns="http://www.w3.org/2000/svg" d="M80.3393333,72.1889722 L84.1640556,82.59175 L84.1640556,92.59175 L54.9982222,92.59175 L54.9987778,77.3284167 L58.2643333,76.1206389 C67.5743333,72.6775833 73.8290556,63.6920278 73.8290556,53.7614722 C73.8290556,50.3673056 73.1179444,47.0845278 71.7776667,44.0739722 L64.0121111,22.9528611 C67.6535,24.6111944 71.0062778,26.9259167 73.9204444,29.8398056 C80.3104444,36.2295278 83.8290556,44.7250833 83.8290556,53.7614722 C83.8290556,60.81175 81.6807222,67.5698056 77.6157222,73.3050833 C74.9443333,77.07425 71.5848889,80.2159167 67.7185,82.59175 L73.4796111,82.59175 L72.8668333,80.9250833 C75.1626667,78.9903611 77.2073889,76.7639722 78.9757222,74.2686944 C79.4571111,73.5895278 79.9093333,72.8945278 80.3393333,72.1889722 Z M27.1282222,47.0422222 L19.3715556,68.1402778 C17.2676667,63.6725 16.1679444,58.7927778 16.1679444,53.7613889 C16.1679444,44.725 19.6868333,36.2294444 26.0768333,29.8397222 C32.2162778,23.7005556 40.3007222,20.2130556 48.9398889,19.9494444 L48.9398889,19.9497222 C48.9515556,19.9494444 48.9632222,19.9488889 48.9748889,19.9480556 C48.9873889,19.9477778 48.9998889,19.9472222 49.0123889,19.9469444 L52.6837778,30.0858333 C51.7982222,29.9869444 50.9029444,29.9313889 49.9985,29.9313889 C43.6332222,29.9311111 37.6490556,32.41 33.1476667,36.9108333 C30.2787778,39.7797222 28.2357222,43.2530556 27.1282222,47.0422222 Z M35.2047778,58.7615 L26.6028333,82.5917778 L32.2786667,82.5917778 C31.197,81.9270556 30.1567222,81.2003889 29.1583889,80.419 L32.8250556,70.2615 C35.2695,72.8165 38.2914444,74.8478889 41.7322778,76.1203889 L44.9972778,77.3281667 L44.9992222,92.5917778 L15.8333889,92.5917778 L15.8333889,82.5917778 L29.7456111,44.7512222 C30.8361667,42.3006667 32.3725556,40.0428889 34.3261667,38.0892778 C37.2547778,35.1609444 40.8595,33.1570556 44.7872778,32.2148333 L38.8145,48.7615 L50.1372778,52.774 L61.2181111,48.7615 L50.1631111,18.2667778 L49.822,18.2667778 C46.0295,18.2851111 42.3295,18.8926111 38.8275556,20.0492778 L43.3392222,7.77788889 L56.6578333,7.77788889 L71.2606111,47.4956667 C71.8506111,49.5053889 72.1625556,51.6087222 72.1625556,53.7615 C72.1625556,58.5987222 70.5617222,63.1909444 67.7981111,66.9315 L64.8397778,58.7615 L49.9986667,64.1356667 L35.2047778,58.7615 Z"/></g><g id="SvgjsG8057" featureKey="nameRightFeature-0" transform="matrix(1.8945182230263968,0,0,1.8945182230263968,208.1292564020222,-1.4956290765427322)" fill="#000"><path d="M19.258 15.38 l0 2.64 c0 0.28 0.08 0.48 0.08 0.64 s-0.12 0.24 -0.32 0.32 c-1.64 0.84 -3.28 1.32 -5.68 1.32 c-1.96 0 -4.4 -0.68 -5.76 -2.32 c-1.24 -1.36 -1.84 -3.08 -1.84 -5.44 c0 -1.84 0.8 -3.76 2.28 -5.04 c1.44 -1.28 3.28 -1.96 5.68 -1.96 c1.92 0 3.44 0.6 4.08 1.08 c0.24 0.18 0.36 0.12 0.48 -0.04 l0.24 -0.32 c0.1 -0.14 0.16 -0.2 0.28 -0.2 c0.2 0 0.24 0.12 0.24 0.28 l0.2 4 c0 0.16 0 0.26 -0.08 0.28 l-0.48 0.08 c-0.12 0.02 -0.16 -0.04 -0.2 -0.16 c-0.28 -0.8 -0.8 -1.92 -1.6 -2.76 c-0.68 -0.72 -1.8 -1.4 -3.32 -1.4 c-1.24 0 -2.32 0.32 -3.4 1.56 c-0.96 1.08 -1.64 2.76 -1.64 4.52 c0 2.36 0.64 4.4 1.8 5.56 c0.96 0.92 1.92 1.36 3.2 1.36 s2.04 -0.16 2.72 -0.52 c0.44 -0.24 0.48 -0.8 0.48 -1.84 l0 -1.46 c0 -0.72 -0.2 -0.92 -0.72 -0.92 l-0.84 0 c-0.12 0 -0.16 -0.08 -0.16 -0.18 l0 -0.46 c0 -0.12 0.04 -0.16 0.12 -0.16 c0.24 0 1.2 0.06 2.84 0.06 c1.68 0 2.36 -0.06 2.56 -0.06 c0.16 0 0.2 0.04 0.2 0.14 l0 0.5 c0 0.12 -0.04 0.16 -0.16 0.16 l-0.68 0 c-0.36 0 -0.6 0.16 -0.6 0.74 z M27.096 13 l0.02 1.2 c0.02 1.08 0.06 3.04 0.06 3.4 c0 1.04 0.36 1.44 0.8 1.56 c0.32 0.08 0.8 0.16 1.56 0.16 c0.36 0 1.28 -0.04 1.68 -0.08 c0.36 -0.04 1.12 -0.24 1.64 -0.68 c0.36 -0.32 1.48 -1.64 1.86 -2.12 c0.08 -0.1 0.14 -0.12 0.22 -0.08 l0.32 0.2 c0.06 0.04 0.08 0.1 0.04 0.2 l-0.96 3 c-0.06 0.18 -0.2 0.3 -0.44 0.3 c-0.1 0 -0.54 -0.02 -1.78 -0.04 c-1.26 0 -3.32 -0.02 -6.66 -0.02 c-0.74 0 -1.28 0.02 -1.7 0.02 c-0.4 0.02 -0.68 0.04 -0.86 0.04 c-0.12 0 -0.16 -0.04 -0.16 -0.16 l0 -0.48 c0 -0.12 0.04 -0.16 0.2 -0.16 l0.68 0 c0.92 0 1 -0.12 1 -0.86 l0 -4.76 l0 -1.96 c0 -1.64 -0.04 -4.12 -0.08 -4.4 c-0.08 -0.54 -0.28 -0.7 -0.88 -0.7 l-0.76 0 c-0.08 0 -0.12 -0.04 -0.12 -0.14 l0 -0.52 c0 -0.1 0.02 -0.14 0.12 -0.14 c0.44 0 1.16 0.08 2.8 0.06 l0.56 0 c0.88 0 5.48 -0.04 6.36 -0.04 c0.32 0 0.7 -0.02 0.8 -0.02 s0.14 0.04 0.16 0.12 c0.08 0.26 0.84 2.98 0.92 3.18 c0.04 0.12 0.02 0.18 -0.06 0.22 l-0.36 0.16 c-0.06 0.02 -0.12 0 -0.18 -0.1 c-0.08 -0.12 -1.72 -1.96 -2.2 -2.24 c-0.42 -0.24 -0.96 -0.5 -1.52 -0.52 l-3.04 -0.08 l-0.04 5.78 c0.6 0 2.04 -0.04 2.28 -0.1 c0.44 -0.08 0.68 -0.24 0.92 -0.72 c0.12 -0.26 0.32 -0.76 0.32 -1.12 c0 -0.12 0.08 -0.16 0.16 -0.16 l0.52 0.04 c0.08 0 0.14 0.04 0.12 0.16 c-0.04 0.32 -0.04 1.64 -0.04 2.16 c0 0.8 0.08 1.76 0.12 2.2 c0 0.1 -0.04 0.12 -0.16 0.14 l-0.44 0.08 c-0.08 0.02 -0.12 -0.02 -0.16 -0.14 c-0.08 -0.32 -0.22 -0.76 -0.32 -1 c-0.18 -0.4 -0.56 -0.68 -1 -0.72 c-0.72 -0.08 -1.68 -0.12 -2.32 -0.12 z M39.514 8.52 l0 2.44 c0 3.4 0.16 6.2 0.2 6.82 c0.04 1 0.28 1.48 1 1.48 l0.52 0 c0.16 0 0.16 0.08 0.16 0.18 l0 0.46 c0 0.12 0 0.16 -0.16 0.16 c-0.2 0 -1.4 -0.06 -2.16 -0.06 c-0.52 0 -1.88 0.06 -2.08 0.06 c-0.08 0 -0.12 -0.04 -0.12 -0.18 l0 -0.5 c0 -0.04 0.04 -0.12 0.12 -0.12 l0.68 0 c0.52 0 0.8 -0.44 0.9 -1.66 c0.02 -0.36 0.14 -3.16 0.14 -6.36 l0 -2.54 c0 -1.2 -0.68 -2.12 -1.56 -2.12 l-0.64 0 c-0.08 -0.02 -0.12 -0.06 -0.12 -0.14 l0 -0.54 c0 -0.08 0.04 -0.12 0.12 -0.12 c0.1 0 0.26 0.02 0.62 0.04 s0.9 0.02 1.78 0.02 c0.34 0 0.64 -0.02 0.88 -0.04 c0.26 0 0.44 -0.02 0.56 -0.02 c0.24 0 0.36 0.06 0.48 0.18 c0.2 0.2 4.12 5.12 4.52 5.68 c0.28 0.32 3.4 4.2 3.72 4.6 l0.08 0 l0 -2.08 c0 -1.76 0 -2.76 -0.04 -3.76 c-0.04 -0.76 -0.12 -2.72 -0.22 -3.06 c-0.14 -0.48 -0.58 -0.76 -1.06 -0.76 l-0.64 0 c-0.12 0 -0.12 -0.08 -0.12 -0.18 l0 -0.46 c0 -0.12 0 -0.16 0.16 -0.16 c0.24 0 0.88 0.06 2.24 0.06 c1.2 0 1.68 -0.06 1.92 -0.06 c0.16 0 0.2 0.08 0.2 0.14 l0 0.46 c0 0.12 -0.04 0.2 -0.12 0.2 l-0.56 0 c-0.4 0 -0.6 0.32 -0.66 1.06 c-0.1 1.36 -0.3 4.72 -0.3 6.76 l0 5.28 c0 0.28 0 0.56 -0.24 0.56 c-0.28 0 -0.52 -0.16 -0.68 -0.32 c-0.16 -0.2 -1.24 -1.44 -2.48 -2.92 c-1.4 -1.72 -2.96 -3.6 -3.2 -3.92 c-0.28 -0.28 -3.48 -4.28 -3.72 -4.56 l-0.12 0 z M57.972 13 l0.02 1.2 c0.02 1.08 0.06 3.04 0.06 3.4 c0 1.04 0.36 1.44 0.8 1.56 c0.32 0.08 0.8 0.16 1.56 0.16 c0.36 0 1.28 -0.04 1.68 -0.08 c0.36 -0.04 1.12 -0.24 1.64 -0.68 c0.36 -0.32 1.48 -1.64 1.86 -2.12 c0.08 -0.1 0.14 -0.12 0.22 -0.08 l0.32 0.2 c0.06 0.04 0.08 0.1 0.04 0.2 l-0.96 3 c-0.06 0.18 -0.2 0.3 -0.44 0.3 c-0.1 0 -0.54 -0.02 -1.78 -0.04 c-1.26 0 -3.32 -0.02 -6.66 -0.02 c-0.74 0 -1.28 0.02 -1.7 0.02 c-0.4 0.02 -0.68 0.04 -0.86 0.04 c-0.12 0 -0.16 -0.04 -0.16 -0.16 l0 -0.48 c0 -0.12 0.04 -0.16 0.2 -0.16 l0.68 0 c0.92 0 1 -0.12 1 -0.86 l0 -4.76 l0 -1.96 c0 -1.64 -0.04 -4.12 -0.08 -4.4 c-0.08 -0.54 -0.28 -0.7 -0.88 -0.7 l-0.76 0 c-0.08 0 -0.12 -0.04 -0.12 -0.14 l0 -0.52 c0 -0.1 0.02 -0.14 0.12 -0.14 c0.44 0 1.16 0.08 2.8 0.06 l0.56 0 c0.88 0 5.48 -0.04 6.36 -0.04 c0.32 0 0.7 -0.02 0.8 -0.02 s0.14 0.04 0.16 0.12 c0.08 0.26 0.84 2.98 0.92 3.18 c0.04 0.12 0.02 0.18 -0.06 0.22 l-0.36 0.16 c-0.06 0.02 -0.12 0 -0.18 -0.1 c-0.08 -0.12 -1.72 -1.96 -2.2 -2.24 c-0.42 -0.24 -0.96 -0.5 -1.52 -0.52 l-3.04 -0.08 l-0.04 5.78 c0.6 0 2.04 -0.04 2.28 -0.1 c0.44 -0.08 0.68 -0.24 0.92 -0.72 c0.12 -0.26 0.32 -0.76 0.32 -1.12 c0 -0.12 0.08 -0.16 0.16 -0.16 l0.52 0.04 c0.08 0 0.14 0.04 0.12 0.16 c-0.04 0.32 -0.04 1.64 -0.04 2.16 c0 0.8 0.08 1.76 0.12 2.2 c0 0.1 -0.04 0.12 -0.16 0.14 l-0.44 0.08 c-0.08 0.02 -0.12 -0.02 -0.16 -0.14 c-0.08 -0.32 -0.22 -0.76 -0.32 -1 c-0.18 -0.4 -0.56 -0.68 -1 -0.72 c-0.72 -0.08 -1.68 -0.12 -2.32 -0.12 z M68.55 15.5 l0.44 0.04 c0.08 0 0.12 0.04 0.12 0.16 c0.04 0.64 0.2 1.4 0.76 2.28 c0.6 0.96 1.64 1.44 2.64 1.44 c1.08 0 2.6 -0.68 2.6 -2.34 c0 -1.84 -0.84 -2.44 -2.96 -3.24 c-0.64 -0.24 -1.96 -0.8 -2.92 -1.68 c-0.68 -0.64 -1 -1.64 -1 -2.86 c0 -1.12 0.44 -2.04 1.4 -2.8 c0.8 -0.68 1.68 -0.96 2.84 -0.96 c1.32 0 2.12 0.32 2.52 0.48 c0.2 0.08 0.32 0.04 0.42 -0.06 l0.26 -0.26 c0.08 -0.08 0.16 -0.12 0.28 -0.12 s0.16 0.12 0.16 0.32 c0 0.32 0.32 3.12 0.32 3.32 c0 0.08 -0.04 0.12 -0.12 0.14 l-0.32 0.1 c-0.08 0.02 -0.16 0 -0.2 -0.12 c-0.2 -0.56 -0.52 -1.36 -1.24 -2.12 c-0.52 -0.56 -1.16 -0.84 -2.08 -0.84 c-1.6 0 -2.24 1.28 -2.24 2.02 c0 0.68 0.08 1.28 0.56 1.8 c0.52 0.52 1.64 1 2.44 1.24 c1.16 0.36 2.12 0.76 2.88 1.56 c0.64 0.68 1 1.52 1 2.86 c0 2.44 -1.6 4.44 -4.24 4.44 c-1.64 0 -2.6 -0.36 -3.4 -0.96 c-0.24 -0.16 -0.36 -0.24 -0.48 -0.24 s-0.2 0.16 -0.32 0.36 s-0.2 0.24 -0.36 0.24 s-0.24 -0.12 -0.24 -0.32 c0.04 -0.24 0.32 -3.48 0.36 -3.72 c0.02 -0.12 0.04 -0.16 0.12 -0.16 z M83.688 11.96 l0 1.56 c0 0.2 0.04 4.8 0.04 5.02 c0 0.64 0.32 0.72 0.8 0.72 l0.84 0 c0.08 0 0.16 0.04 0.16 0.14 l0 0.5 c0 0.12 -0.08 0.16 -0.2 0.16 c-0.24 0 -1.04 -0.06 -2.92 -0.06 c-2 0 -2.88 0.06 -3.08 0.06 c-0.12 0 -0.16 -0.04 -0.16 -0.14 l0 -0.54 c0 -0.08 0.04 -0.12 0.16 -0.12 l0.8 0 c0.4 0 0.84 -0.04 0.92 -0.58 c0.04 -0.28 0.08 -4.6 0.08 -5.68 l0 -1.4 c0 -0.48 -0.04 -4.08 -0.06 -4.34 c-0.06 -0.48 -0.26 -0.68 -0.82 -0.68 l-1.04 0 c-0.12 0 -0.16 -0.04 -0.16 -0.14 l0 -0.52 c0 -0.1 0.04 -0.14 0.12 -0.14 c0.24 0 1.28 0.06 3.24 0.06 c1.92 0 2.56 -0.06 2.84 -0.06 c0.12 0 0.16 0.08 0.16 0.18 l0 0.46 c0 0.12 -0.08 0.16 -0.16 0.16 l-0.76 0 c-0.44 0 -0.76 0.16 -0.76 0.54 c0 0.2 -0.04 4.6 -0.04 4.84 z M88.346 15.5 l0.44 0.04 c0.08 0 0.12 0.04 0.12 0.16 c0.04 0.64 0.2 1.4 0.76 2.28 c0.6 0.96 1.64 1.44 2.64 1.44 c1.08 0 2.6 -0.68 2.6 -2.34 c0 -1.84 -0.84 -2.44 -2.96 -3.24 c-0.64 -0.24 -1.96 -0.8 -2.92 -1.68 c-0.68 -0.64 -1 -1.64 -1 -2.86 c0 -1.12 0.44 -2.04 1.4 -2.8 c0.8 -0.68 1.68 -0.96 2.84 -0.96 c1.32 0 2.12 0.32 2.52 0.48 c0.2 0.08 0.32 0.04 0.42 -0.06 l0.26 -0.26 c0.08 -0.08 0.16 -0.12 0.28 -0.12 s0.16 0.12 0.16 0.32 c0 0.32 0.32 3.12 0.32 3.32 c0 0.08 -0.04 0.12 -0.12 0.14 l-0.32 0.1 c-0.08 0.02 -0.16 0 -0.2 -0.12 c-0.2 -0.56 -0.52 -1.36 -1.24 -2.12 c-0.52 -0.56 -1.16 -0.84 -2.08 -0.84 c-1.6 0 -2.24 1.28 -2.24 2.02 c0 0.68 0.08 1.28 0.56 1.8 c0.52 0.52 1.64 1 2.44 1.24 c1.16 0.36 2.12 0.76 2.88 1.56 c0.64 0.68 1 1.52 1 2.86 c0 2.44 -1.6 4.44 -4.24 4.44 c-1.64 0 -2.6 -0.36 -3.4 -0.96 c-0.24 -0.16 -0.36 -0.24 -0.48 -0.24 s-0.2 0.16 -0.32 0.36 s-0.2 0.24 -0.36 0.24 s-0.24 -0.12 -0.24 -0.32 c0.04 -0.24 0.32 -3.48 0.36 -3.72 c0.02 -0.12 0.04 -0.16 0.12 -0.16 z"/></g>
			</g>
		</svg>
	